<?xml version="1.0" encoding="utf-8"?>
<!-- Generator: Adobe Illustrator 25.2.3, SVG Export Plug-In . SVG Version: 6.00 Build 0)  -->
<svg version="1.1" id="Layer_1" xmlns="http://www.w3.org/2000/svg" xmlns:xlink="http://www.w3.org/1999/xlink" x="0px" y="0px"
	 viewBox="0 0 280 280" style="enable-background:new 0 0 280 280;" xml:space="preserve">
<style type="text/css">
	.st0{opacity:0.6;fill:#F28D8F;enable-background:new    ;}
	.st1{fill:#FFFFFF;}
</style>
<g>
	<circle class="st0" cx="140" cy="140" r="140"/>
	<circle class="st0" cx="140" cy="140" r="121.7"/>
	<circle class="st0" cx="140" cy="140" r="103.5"/>
	<path class="st1" d="M193.3,122.1l-16.8-9.9V93.1c0-1.7-1.4-3-3-3h-67c-1.7,0-3,1.4-3,3l0,0v19.1l-16.8,9.9
		c-0.9,0.5-1.5,1.5-1.5,2.6v53c0,6.7,5.5,12.2,12.2,12.2h85.2c6.7,0,12.2-5.5,12.2-12.2v-53C194.8,123.7,194.2,122.7,193.3,122.1z
		 M109.6,96.2h60.9v47.4L140,157.7l-30.4-14.1V96.2z M188.7,177.7c0,3.4-2.7,6.1-6.1,6.1H97.4c-3.4,0-6.1-2.7-6.1-6.1v-51.2
		l12.2-7.2v21.5l-1.8-0.8c-1.5-0.7-3.3,0-4.1,1.5c-0.7,1.5,0,3.3,1.5,4.1l39.6,18.3c0.8,0.4,1.7,0.4,2.6,0l39.6-18.3
		c1.5-0.7,2.2-2.5,1.5-4.1c-0.7-1.5-2.5-2.2-4.1-1.5l0,0l-1.8,0.8v-21.5l12.2,7.2V177.7z"/>
	<path class="st1" d="M137,141.5c-0.8,0-1.6-0.3-2.2-0.9l-12.2-12.2c-1.2-1.2-1.1-3.1,0.1-4.3c1.2-1.1,3-1.1,4.2,0l9.7,9.7
		l16.2-21.5c1-1.3,2.9-1.6,4.3-0.6c1.3,1,1.6,2.9,0.6,4.3l-18.3,24.3c-0.5,0.7-1.3,1.2-2.2,1.2L137,141.5z"/>
</g>
</svg>
