<svg id="Layer_1" data-name="Layer 1" xmlns="http://www.w3.org/2000/svg" viewBox="0 0 142 80"><defs><style>.cls-1,.cls-2{fill:#fff;}.cls-1{fill-rule:evenodd;}</style></defs><path class="cls-1" d="M70.65,25.57l-5.6-.64c-2.38,2.16-12.26,16.93-4.62,13.62,4.72-2.87,9.36-6.73,10.22-13m-7.83-3.4s-4.28-.83-4.2,1.93c0,0-.25,1,1.48,1.38,0,0-4.7,7.73-4.78,12.06,0,0,0,4.87,5.19,3.12,3.74-1.23,15.79-12.06,12.7-16.1h2.47s1.4-2.57-1.4-2.39l-7.09-.28s-.65-1.83-2.88-.82l-.91.36ZM16.31,12.58,14.13,14S8.49,6.7,13.22,3.25c0,0,12-7.7,35.06.61,0,0,15.43,7.5,9.44,18.86,0,0-5.45,7.5-19.07,7.5,0,0,7.81,15,13.62,13.38,0,0,2.73.61-.36,2.23a9.31,9.31,0,0,1-9.08-5.27s-6-7.91-7.27-11.15c0,0-2.36,4.86-2.36,7.3,0,0,.18,3-2.73,1.21,0,0-.9-1.42.19-4.05l7.08-15.61,3.09-5.48s-.73-3.45,1.45-2c0,0,1.82.81.18,4.06L36.29,27s4,2.23,12.71-1c0,0,6.82-1.74,6.9-8.92,0,0-.24-7.77-12.71-12.37,0,0-17.44-5.27-28.16,0l-2.79,1.8L15,4.67l-2.79,1.8ZM78.9,21s-1.73-1.74-2.48.92l3.14,8.65S69.25,39.74,67.11,46c0,0-3.38,9.2,5.77,11.5,0,0,1.81-1.65,0-2.21,0,0-5.36-1.65-4.45-6A29.19,29.19,0,0,1,75.1,38.82L80.3,33s5.19,10.58,7.5,10a1.2,1.2,0,0,0,.33-1.84l-5.77-9.76,7.91-6.53,3.38-2s1.73-3.41-1.07-3.22l-11.46,9-1.56-5.52-.33-1.29Z"/><rect class="cls-2" y="52.99" width="61.99" height="1.98"/><rect class="cls-2" x="80.01" y="52.99" width="61.99" height="1.98"/><path class="cls-2" d="M106.37,74.55a2,2,0,0,0,1.82-1.17,6.51,6.51,0,0,0,.62-3.08,5.54,5.54,0,0,0-.7-3.09,2,2,0,0,0-3.49,0,5.88,5.88,0,0,0-.68,3.14,5.73,5.73,0,0,0,.69,3.12,2,2,0,0,0,1.74,1.06m0-9.88a3.36,3.36,0,0,1,2.77,1.43,6.59,6.59,0,0,1,1.1,4.09c0,2.15-.39,3.66-1.19,4.55a3.51,3.51,0,0,1-2.68,1.33,3.46,3.46,0,0,1-2.71-1.37,6.64,6.64,0,0,1-1.15-4.33,6.88,6.88,0,0,1,1.11-4.29,3.38,3.38,0,0,1,2.75-1.41m-5.49-1.82H99.47v-2.1h1.41Zm0,13H99.47V64.91h1.41Zm-7.06-1.26a1.84,1.84,0,0,0,1.56-1,5.73,5.73,0,0,0,.64-3,7.17,7.17,0,0,0-.59-3.17,1.82,1.82,0,0,0-1.67-1.18,1.77,1.77,0,0,0-1.65,1.15,7.06,7.06,0,0,0-.55,3,7.57,7.57,0,0,0,.3,2.29,3.1,3.1,0,0,0,.84,1.42,1.68,1.68,0,0,0,1.12.47m3.47,1.26H96V74.42h0a2.43,2.43,0,0,1-2.28,1.65,3,3,0,0,1-2.53-1.59,7.58,7.58,0,0,1-1-4.11,7.9,7.9,0,0,1,1-4.17,2.88,2.88,0,0,1,2.53-1.53,2.41,2.41,0,0,1,2.25,1.49h0V60.75h1.4Zm-8.84,0H87.2v-1.6h0a2.89,2.89,0,0,1-2.59,1.86,2.69,2.69,0,0,1-1.6-.53,2.51,2.51,0,0,1-1-1.46,9.9,9.9,0,0,1-.24-2.41V64.92h1.4v6a14.44,14.44,0,0,0,.1,2.08,1.74,1.74,0,0,0,.55,1,1.5,1.5,0,0,0,1,.4,2.07,2.07,0,0,0,1.5-.72c.47-.48.7-1.48.7-3V64.92h1.4Zm-7.89,0a4.26,4.26,0,0,1-1,.16,1.82,1.82,0,0,1-1.34-.42,1.88,1.88,0,0,1-.51-1.09,12.2,12.2,0,0,1-.1-1.82V66.34h-1V64.92h1V62.2L79,61.08v3.84h1.4v1.42H79v6.38a3.94,3.94,0,0,0,.13,1.17c.09.22.3.34.65.34a2.7,2.7,0,0,0,.62-.08ZM73.64,65.17A3.33,3.33,0,0,0,72.86,63a2.58,2.58,0,0,0-2-.72,3,3,0,0,0-1.9.57,2,2,0,0,0-.73,1.67A1.79,1.79,0,0,0,68.81,66a6.57,6.57,0,0,0,2.16,1,14.81,14.81,0,0,1,2.31.84,4,4,0,0,1,1.53,1.34,4.22,4.22,0,0,1,.64,2.44,4.59,4.59,0,0,1-1.17,3.22,3.93,3.93,0,0,1-3,1.29,4.44,4.44,0,0,1-3.6-1.42A5.75,5.75,0,0,1,66.37,71l1.43-.16a3.58,3.58,0,0,0,1,2.63,3.38,3.38,0,0,0,2.31.83,3,3,0,0,0,2-.69A2.37,2.37,0,0,0,74,71.71a2,2,0,0,0-.81-1.8,10.37,10.37,0,0,0-2.74-1.11,5.55,5.55,0,0,1-2.78-1.54,3.9,3.9,0,0,1-.84-2.59,4.25,4.25,0,0,1,1.07-3,3.73,3.73,0,0,1,2.92-1.18,4.08,4.08,0,0,1,3,1.17A4.84,4.84,0,0,1,75.09,65ZM54.31,71v-.67a12,12,0,0,1-2.68.76A1.67,1.67,0,0,0,50,72.88a1.85,1.85,0,0,0,.43,1.24,1.55,1.55,0,0,0,1.23.49,2.43,2.43,0,0,0,1.82-.82A3.9,3.9,0,0,0,54.31,71m1.85,4.79H54.69a5.11,5.11,0,0,1-.28-1.35,4.07,4.07,0,0,1-3,1.61,2.57,2.57,0,0,1-2.06-.87,3.28,3.28,0,0,1-.76-2.27,3.37,3.37,0,0,1,.73-2.24,4,4,0,0,1,2.52-1.16l1.31-.26a5.68,5.68,0,0,0,1.2-.38,10.8,10.8,0,0,0,0-1.18A1.9,1.9,0,0,0,54,67a1.36,1.36,0,0,0-.61-.6,2.37,2.37,0,0,0-1.12-.22,2.13,2.13,0,0,0-1.43.44,2.64,2.64,0,0,0-.72,1.64L48.79,68A4,4,0,0,1,50,65.51a3.7,3.7,0,0,1,2.57-.84,3.36,3.36,0,0,1,2.18.58,2.33,2.33,0,0,1,.85,1.4,11.11,11.11,0,0,1,.16,2.11v2.49c0,1.51,0,2.53.07,3a4.79,4.79,0,0,0,.38,1.51M43.64,74.55a1.88,1.88,0,0,0,1.63-1.08,6.4,6.4,0,0,0,.64-3.19,6.32,6.32,0,0,0-.62-3.09,1.83,1.83,0,0,0-1.58-1.08,1.89,1.89,0,0,0-1.64,1.21,6.56,6.56,0,0,0-.64,3.11A6.17,6.17,0,0,0,42,73.5a1.83,1.83,0,0,0,1.6,1m-2.17-8.23a2.52,2.52,0,0,1,2.36-1.65,2.9,2.9,0,0,1,2.57,1.55,7.84,7.84,0,0,1,.94,4.06,7.55,7.55,0,0,1-1,4.22,3.05,3.05,0,0,1-2.56,1.57,2.4,2.4,0,0,1-2.13-1.4h0V80h-1.4V64.92h1.27v1.4Zm-5-1.15A3.28,3.28,0,0,0,35.67,63a2.58,2.58,0,0,0-2-.72,3,3,0,0,0-1.9.57,2,2,0,0,0-.73,1.67A1.79,1.79,0,0,0,31.63,66a6.37,6.37,0,0,0,2.16,1,14.28,14.28,0,0,1,2.3.84,4,4,0,0,1,1.54,1.34,4.22,4.22,0,0,1,.63,2.44,4.59,4.59,0,0,1-1.17,3.22A3.92,3.92,0,0,1,34,76.07a4.43,4.43,0,0,1-3.59-1.42A5.82,5.82,0,0,1,29.18,71l1.43-.16a3.58,3.58,0,0,0,1.06,2.63,3.38,3.38,0,0,0,2.31.83A3,3,0,0,0,36,73.58a2.37,2.37,0,0,0,.78-1.87,2,2,0,0,0-.82-1.8,10.08,10.08,0,0,0-2.74-1.11,5.56,5.56,0,0,1-2.77-1.54,3.9,3.9,0,0,1-.85-2.59,4.26,4.26,0,0,1,1.08-3,3.73,3.73,0,0,1,2.92-1.18,4.1,4.1,0,0,1,3,1.17A4.84,4.84,0,0,1,37.91,65Z"/><path class="cls-1" d="M61.45,68.53a1.7,1.7,0,1,1-1.69,1.69,1.7,1.7,0,0,1,1.69-1.69"/><path class="cls-2" d="M101.52,24.89a20,20,0,0,0-2.46,8.59c2.66-6,8.13-11.16,9.51-12.41l.4-3.6a17.11,17.11,0,0,0-7.45,7.42m2.15,21.68A9.82,9.82,0,0,0,106,45.7c3.93-1.6,11.6-5.43,13.43-11.37,2.46-7,1-12.31,7.32-18.48,0,0-3.49-2-14.44,3.87a23,23,0,0,1,1.18-7.27s-2.17-.07-5.91,2.56A26.63,26.63,0,0,0,96.33,32.4a14.22,14.22,0,0,0,.54,7s1.66-.62,1.56-1.74c-2-7.42,3.06-18.76,11.74-21.61l-.59,5.38S97.33,32,98.78,41a3.41,3.41,0,0,0,.11.61,2.1,2.1,0,0,0,.17-.61c.45-2.94,4.69-15,12.42-18.82,0,0,8.76-5.26,10.42-3.59-5.18,7.52-2.06,9.45-4.26,15.61-1.84,5.14-6.45,7.73-12,11.11a20.25,20.25,0,0,0-2,1.26m1.71.37c-1.69.74-2.32.55-4.13.54a19,19,0,0,1,3.33-2.57l.6-.34.91-.56c4.9-3,8.94-5.48,10.55-10a16.37,16.37,0,0,0,.9-5.59,15.39,15.39,0,0,1,2.87-9.35c-2.21.12-8.43,3.83-8.45,3.84l-.07,0A18.9,18.9,0,0,0,105,29.64a36.61,36.61,0,0,0-4.79,10.7c-.31,1.33-.6,2.6-.92,3.94A12.4,12.4,0,0,1,97.61,40a3.8,3.8,0,0,1-.49.23l-1,.36-.3-.84a13.83,13.83,0,0,1-.75-3.71,17,17,0,0,1,.17-3.65,25.38,25.38,0,0,1,3.86-10A29.76,29.76,0,0,1,107,14.31c4.07-2.87,6.64-2.79,6.65-2.79H115l-.48,1.14a18.76,18.76,0,0,0-1,5.46c10.33-5.2,13.94-3.1,13.95-3.09l1,.53-.88.86c-4,3.95-4.7,7.61-5.46,11.64a41.82,41.82,0,0,1-1.59,6.41,14.7,14.7,0,0,1-4.77,6.64,35.85,35.85,0,0,1-9.34,5.43Z"/></svg>