<svg id="Layer_1" data-name="Layer 1" xmlns="http://www.w3.org/2000/svg" viewBox="0 0 64 64"><defs><style>.cls-1{fill:#f7a1a1;}</style></defs><g id="Group_11491" data-name="Group 11491"><path id="Path_9545" data-name="Path 9545" class="cls-1" d="M37.18,36.4a1.06,1.06,0,0,0,1.51-1.5l-1.51-1.51a1.06,1.06,0,1,0-1.51,1.5h0Z"/><path id="Path_9546" data-name="Path 9546" class="cls-1" d="M43.21,42.44a1.07,1.07,0,1,0,1.52-1.5h0l-1.5-1.51a1.08,1.08,0,0,0-1.51,0,1.06,1.06,0,0,0,0,1.51Z"/><path id="Path_9547" data-name="Path 9547" class="cls-1" d="M1.07,62.5H62.93A1.07,1.07,0,0,0,64,61.43h0V55A1.06,1.06,0,0,0,62.93,54H59.5l-1.4-5.66v0A9.45,9.45,0,0,0,55.52,44a13.39,13.39,0,0,0,3.13-9.29,16.29,16.29,0,0,0-.24-2.19,7.1,7.1,0,0,0,.64-.59A9.6,9.6,0,0,0,45.48,18.38h0a8.72,8.72,0,0,0-1.22,1.49l-.49,0A13.32,13.32,0,0,0,33.69,23.7l-4.53,4.52a8.55,8.55,0,0,0-.32,11.72,10.07,10.07,0,0,0,.2,1.34,10,10,0,0,0-8.2,7v0L19.43,54H16.9l-2-11.9a1.06,1.06,0,0,0-1.05-.89H7.47a1.07,1.07,0,0,0-1.06.89L4.43,54H1.07A1.06,1.06,0,0,0,0,55v6.4A1.07,1.07,0,0,0,1.07,62.5ZM56,48.84,57.3,54H53.82a4.26,4.26,0,0,0-1.55-5.83,4,4,0,0,0-.51-.25l.17-.21,2.12-2.12A7.35,7.35,0,0,1,56,48.84Zm-5.9.86a2.14,2.14,0,1,1,0,4.27H28.8a2.14,2.14,0,0,1,0-4.27ZM47,46.57l3-3,0,0a2.13,2.13,0,0,1,.26,2.7l-.58.58a2.13,2.13,0,0,1-2.7-.26l0,0Zm0-26.68A7.46,7.46,0,0,1,57.77,30.21a15.93,15.93,0,0,0-11.12-10c.11-.12.22-.24.34-.35Zm.12,2.7a13.69,13.69,0,0,1,9.42,12.22,11.26,11.26,0,0,1-3.24,8.5l-.65.65a4.17,4.17,0,0,0-1.09-1.87c-.23-.24-.77-.77-.77-.77-8.5-9.64-5.4-16.27-3.67-18.73ZM35.2,25.21A11.2,11.2,0,0,1,43.69,22a9.4,9.4,0,0,1,1.2.1A13.46,13.46,0,0,0,43,29.14v.17c-2.86,1.29-5.68-1.45-5.8-1.57L36.47,27a4.27,4.27,0,0,0-2-1.12ZM32,28.52a2.14,2.14,0,0,1,3,0l-3,3a2.14,2.14,0,0,1,0-3ZM33.43,33,36.5,30a7.65,7.65,0,0,0,6.7,1.56,22.54,22.54,0,0,0,5.31,10.53l-3,3a8.52,8.52,0,1,1-12.2-11.9l.1-.1,0,0Zm-4-1.56a4.13,4.13,0,0,0,1,1.59l.12.11a10.44,10.44,0,0,0-1.42,3.18,6.41,6.41,0,0,1,.3-4.88ZM22.9,48.84a7.84,7.84,0,0,1,6.8-5.49,10.73,10.73,0,0,0,3.36,4.22H28.8A4.26,4.26,0,0,0,25.11,54H21.63ZM8.37,43.3H13L14.74,54H6.59ZM2.13,56.1H61.86v4.27H2.13Z"/><path id="Path_9548" data-name="Path 9548" class="cls-1" d="M10,29.43a1.07,1.07,0,0,0-2.13,0,1.45,1.45,0,0,1-.27.9,3.82,3.82,0,0,0,0,3.89,1.63,1.63,0,0,1,0,1.8A3.62,3.62,0,0,0,7.07,38,1.07,1.07,0,0,0,9.2,38a1.45,1.45,0,0,1,.27-.9,3.82,3.82,0,0,0,0-3.89,1.63,1.63,0,0,1,0-1.8A3.62,3.62,0,0,0,10,29.43Z"/><path id="Path_9549" data-name="Path 9549" class="cls-1" d="M14.27,27.3a1.07,1.07,0,0,0-2.14,0,1.51,1.51,0,0,1-.26.9,3.77,3.77,0,0,0,0,3.89,1.67,1.67,0,0,1,0,1.8,3.5,3.5,0,0,0-.53,1.94,1.07,1.07,0,0,0,2.13.07v-.07a1.53,1.53,0,0,1,.26-.9,3.77,3.77,0,0,0,0-3.89,1.67,1.67,0,0,1,0-1.8A3.57,3.57,0,0,0,14.27,27.3Z"/><path id="Path_9550" data-name="Path 9550" class="cls-1" d="M39.25,45.13A4.32,4.32,0,0,0,40.54,45a1.07,1.07,0,1,0-.64-2h0a3.59,3.59,0,0,1-3.43-1.25,3.69,3.69,0,0,1-1.27-3.37,1.06,1.06,0,0,0-2-.75v0h0a5.67,5.67,0,0,0,1.77,5.61A6,6,0,0,0,39.25,45.13Z"/></g></svg>