<svg id="Layer_1" data-name="Layer 1" xmlns="http://www.w3.org/2000/svg" viewBox="0 0 64 64"><defs><style>.cls-1{fill:#f7a1a1;}</style></defs><g id="Group_11492" data-name="Group 11492"><path id="Path_9551" data-name="Path 9551" class="cls-1" d="M9.74,47a3.87,3.87,0,1,0,3.87,3.87A3.87,3.87,0,0,0,9.74,47Zm0,5.8a1.94,1.94,0,1,1,1.94-1.93A1.92,1.92,0,0,1,9.74,52.82Z"/><path id="Path_9552" data-name="Path 9552" class="cls-1" d="M21.35,41.21A5.81,5.81,0,1,0,27.16,47,5.81,5.81,0,0,0,21.35,41.21Zm0,9.68A3.87,3.87,0,1,1,25.23,47,3.88,3.88,0,0,1,21.35,50.89Z"/><path id="Path_9553" data-name="Path 9553" class="cls-1" d="M61,33.47H46.52V31.53h1.93a1,1,0,0,0,.83-.47l2.07-3.46a6.67,6.67,0,0,0,1-3.48V24a6.81,6.81,0,0,0-1.63-4.41l-4.41-5.14a1,1,0,0,0-1.41-.06h0l-.06.06L40.4,19.59A6.81,6.81,0,0,0,38.77,24v.12a6.89,6.89,0,0,0,1,3.48l2.08,3.46a1,1,0,0,0,.83.47h1.93v1.94H31V24.76a8.71,8.71,0,0,0-7.74-8.65V12.18a1.94,1.94,0,0,0,1.94-1.94V6.37A3.88,3.88,0,0,0,21.35,2.5H11.68A3.87,3.87,0,0,0,7.81,6.37v3.87a1.93,1.93,0,0,0,1.93,1.94v3.93A8.72,8.72,0,0,0,2,24.76v31A6.77,6.77,0,0,0,8.77,62.5H24.26A6.77,6.77,0,0,0,31,56.65a11.82,11.82,0,0,0,1.54,1.91l.54.54a11.54,11.54,0,0,0,8.21,3.4h8.6a11.54,11.54,0,0,0,8.21-3.4l.54-.54A11.54,11.54,0,0,0,62,50.35V34.44A1,1,0,0,0,61,33.47ZM43.19,29.6l-1.79-3a4.89,4.89,0,0,1-.69-2.49V24a4.86,4.86,0,0,1,1.16-3.15l3.68-4.28,3.68,4.28A4.86,4.86,0,0,1,50.39,24v.12a4.89,4.89,0,0,1-.69,2.49l-1.8,3H46.52V27.48a2.91,2.91,0,1,0-1.94,0V29.6Zm1.39-4.84a1,1,0,0,1,1.94,0,1,1,0,0,1-1.94,0ZM60.06,35.4v1.94H31V35.4ZM22.32,18a6.75,6.75,0,0,1,4.73,1.94H6A6.75,6.75,0,0,1,10.71,18ZM9.74,10.24V8.31H23.29v1.93Zm1.94-5.8h9.67a1.93,1.93,0,0,1,1.94,1.93H9.74A1.93,1.93,0,0,1,11.68,4.44Zm9.67,7.74v3.87H11.68V12.18ZM4.6,21.85H28.43a6.67,6.67,0,0,1,.67,2.91V36L28,34.88a4.77,4.77,0,0,0-3.42-1.41h-.66a4.75,4.75,0,0,0-3.42,1.41L18.9,36.49a2.92,2.92,0,0,1-2,.85h-.67a2.92,2.92,0,0,1-2-.85l-1.6-1.61a4.79,4.79,0,0,0-3.42-1.41H8.44A4.79,4.79,0,0,0,5,34.88L3.94,36V24.76A6.66,6.66,0,0,1,4.6,21.85ZM24.26,60.56H8.77a4.8,4.8,0,0,1-3.84-1.93H28.1A4.8,4.8,0,0,1,24.26,60.56Zm4.84-4.83a5.21,5.21,0,0,1-.1,1H4a5.2,5.2,0,0,1-.09-1v-17l2.45-2.46a3,3,0,0,1,2.05-.85h.67a3,3,0,0,1,2.05.85l1.6,1.61a4.79,4.79,0,0,0,3.42,1.41h.67a4.79,4.79,0,0,0,3.42-1.41l1.6-1.61a3,3,0,0,1,2.06-.85h.66a3,3,0,0,1,2.05.85l2.46,2.46Zm12.15,4.83a9.53,9.53,0,0,1-5.79-1.93H55.64a9.53,9.53,0,0,1-5.79,1.93Zm16.43-3.87H33.41A9.65,9.65,0,0,1,31,50.35V39.27h29V50.35A9.55,9.55,0,0,1,57.68,56.69Z"/><path id="Path_9554" data-name="Path 9554" class="cls-1" d="M54.65,44.89a3.93,3.93,0,0,0-2.33-.78H52a3.86,3.86,0,0,0-1.73.41l-1,.49a4.77,4.77,0,0,0-6.71-.87,4.48,4.48,0,0,0-.87.87l-1-.49a3.86,3.86,0,0,0-1.73-.41h-.29a3.9,3.9,0,0,0-2.32.78l-3.1,2.32a1,1,0,0,0-.19,1.35,1.21,1.21,0,0,0,.19.2l3.1,2.32a3.89,3.89,0,0,0,2.32.77h.29a4,4,0,0,0,1.73-.4l1-.49a4.79,4.79,0,0,0,6.71.87,5.12,5.12,0,0,0,.87-.87l1,.49a4,4,0,0,0,1.73.4h.28a3.92,3.92,0,0,0,2.33-.77l3.09-2.32a1,1,0,0,0,.2-1.36.9.9,0,0,0-.2-.19ZM39.92,49.72a2,2,0,0,1-.86.2h-.29a2,2,0,0,1-1.16-.39L35.55,48l2.06-1.54a1.91,1.91,0,0,1,1.16-.39h.29a2,2,0,0,1,.86.2l1,.49a4.4,4.4,0,0,0,0,2.49Zm5.63,1.17A2.91,2.91,0,1,1,48.45,48,2.9,2.9,0,0,1,45.55,50.89Zm7.93-1.36a1.93,1.93,0,0,1-1.16.39H52a2,2,0,0,1-.87-.2l-1-.49a4.4,4.4,0,0,0,0-2.49l1-.48a1.89,1.89,0,0,1,.87-.21h.28a1.87,1.87,0,0,1,1.16.39L55.55,48Z"/><rect id="Rectangle_1092" data-name="Rectangle 1092" class="cls-1" x="44.58" y="47.02" width="1.94" height="1.94"/></g></svg>