<svg id="Layer_1" data-name="Layer 1" xmlns="http://www.w3.org/2000/svg" viewBox="0 0 64 64"><defs><style>.cls-1{fill:#f7a1a1;}</style></defs><g id="Group_11490" data-name="Group 11490"><path id="Path_9544" data-name="Path 9544" class="cls-1" d="M62,35.5a7,7,0,0,0-7-7H46v-7a1,1,0,0,0-1-1h-.15L33,22.33V21.4a5,5,0,0,0,4-4.9c0-4.36-4.12-8.53-4.29-8.71a1,1,0,0,0-1.42,0C31.12,8,27,12.14,27,16.5a5,5,0,0,0,4,4.9v1.24L18.85,24.51a1,1,0,0,0-.85,1V36.64a11,11,0,0,0-2.5-2,1,1,0,0,0-1,0,11.07,11.07,0,0,0-5.4,8.09A10.54,10.54,0,0,0,7,42.5a9.76,9.76,0,0,0-1.32.09,1,1,0,0,0-.8.6A11,11,0,0,0,8.69,56.5H2v2H4.38L6.1,62a1,1,0,0,0,.9.55H45a1,1,0,0,0,1-1v-3h6.38L54.1,62a1,1,0,0,0,.9.55h4a1,1,0,0,0,1-1v-3h1a1,1,0,0,0,1-1v-4a1,1,0,0,0-1-1H59.89A7,7,0,0,0,60,42.63a6.78,6.78,0,0,0-1.43-1.13A7,7,0,0,0,62,35.5Zm-33-19c0-2.56,1.92-5.22,3-6.5,1.08,1.28,3,3.94,3,6.5a3,3,0,0,1-2,2.82V17.5H31v1.82A3,3,0,0,1,29,16.5Zm-9,23V26.36l24-3.69V28.5H41a7,7,0,0,0-4.83,12,7,7,0,0,0-4.06,12H31a1,1,0,0,0-1,1v4a1,1,0,0,0,1,1h1v2H24.62l1-2H28v-2H21.3a11,11,0,0,0,3.82-13.31,1,1,0,0,0-.8-.6,10.34,10.34,0,0,0-3.42.12,10.83,10.83,0,0,0-1-3.21Zm-5.49,17A9,9,0,0,1,20,45a8.85,8.85,0,0,1,3-.51l.49,0A9,9,0,0,1,18,56a8.89,8.89,0,0,1-3,.51ZM15,36.68a9,9,0,0,1,3.94,6.6A11.05,11.05,0,0,0,15,46a11.11,11.11,0,0,0-4-2.66A9,9,0,0,1,15,36.68ZM6,47.5a8.89,8.89,0,0,1,.51-3l.49,0a8.88,8.88,0,0,1,6.75,3.07,10.81,10.81,0,0,0-1.43,8.52A9,9,0,0,1,6,47.5Zm16.38,13H7.62l-1-2H23.38Zm14,0H34v-2h3.38Zm7.62,0H38.62l1-2H44Zm14,0H55.62l-1-2H58Zm2-6v2H32v-2Zm0-7a5,5,0,0,1-5,5H37a5,5,0,0,1,0-10H50a3,3,0,0,1,0,6H40a1,1,0,0,1,0-2h7v-2H40a3,3,0,0,0,0,6H50a5,5,0,0,0,5-5,4.87,4.87,0,0,0-1-3h1A5,5,0,0,1,60,47.5Zm-10-7H41a5,5,0,0,1,0-10H52a3,3,0,0,1,0,6H42a1,1,0,0,1,0-2h7v-2H42a3,3,0,0,0,0,6H52a5,5,0,0,0,4.08-7.88A5,5,0,0,1,55,40.5Z"/><rect id="Rectangle_1090" data-name="Rectangle 1090" class="cls-1" x="22" y="28.5" width="2" height="8"/><rect id="Rectangle_1091" data-name="Rectangle 1091" class="cls-1" x="22" y="38.5" width="2" height="2"/></g></svg>